<mxfile host="app.diagrams.net" modified="2022-11-11T13:18:34.368Z" agent="5.0 (Windows NT 10.0; Win64; x64) AppleWebKit/537.36 (KHTML, like Gecko) Chrome/107.0.0.0 Safari/537.36" etag="nIapG4APQ_yau3dmfevY" version="20.5.3" type="github">
  <diagram name="Турбины" id="c7558073-3199-34d8-9f00-42111426c3f3">
    <mxGraphModel dx="2857" dy="1134" grid="1" gridSize="10" guides="1" tooltips="1" connect="1" arrows="1" fold="1" page="1" pageScale="1" pageWidth="826" pageHeight="1169" math="0" shadow="1">
      <root>
        <mxCell id="0" />
        <mxCell id="1" parent="0" />
        <mxCell id="tL17GhLCMj96Ze86oTwv-2" value="КА №8 ТП-87" style="whiteSpace=wrap;html=1;aspect=fixed;rounded=0;fillColor=#FFE45E;strokeColor=#000000;fontColor=#5AA9E6;" vertex="1" parent="1">
          <mxGeometry x="-40" y="80" width="40" height="40" as="geometry" />
        </mxCell>
        <mxCell id="tL17GhLCMj96Ze86oTwv-3" value="КА №9 ТП-87" style="whiteSpace=wrap;html=1;aspect=fixed;rounded=0;fillColor=#FFE45E;strokeColor=#000000;fontColor=#5AA9E6;" vertex="1" parent="1">
          <mxGeometry x="80" y="80" width="40" height="40" as="geometry" />
        </mxCell>
        <mxCell id="tL17GhLCMj96Ze86oTwv-4" value="КА №10 ТП-87" style="whiteSpace=wrap;html=1;aspect=fixed;rounded=0;fillColor=#FFE45E;strokeColor=#000000;fontColor=#5AA9E6;" vertex="1" parent="1">
          <mxGeometry x="200" y="80" width="40" height="40" as="geometry" />
        </mxCell>
        <mxCell id="tL17GhLCMj96Ze86oTwv-5" value="КА №11 ТП-87" style="whiteSpace=wrap;html=1;aspect=fixed;rounded=0;fillColor=#FFE45E;strokeColor=#000000;fontColor=#5AA9E6;" vertex="1" parent="1">
          <mxGeometry x="320" y="80" width="40" height="40" as="geometry" />
        </mxCell>
        <mxCell id="tL17GhLCMj96Ze86oTwv-6" value="КА №12 ТП-87" style="whiteSpace=wrap;html=1;aspect=fixed;rounded=0;fillColor=#FFE45E;strokeColor=#000000;fontColor=#5AA9E6;" vertex="1" parent="1">
          <mxGeometry x="440" y="80" width="40" height="40" as="geometry" />
        </mxCell>
        <mxCell id="tL17GhLCMj96Ze86oTwv-7" value="КА №13 ТП-87" style="whiteSpace=wrap;html=1;aspect=fixed;rounded=0;fillColor=#FFE45E;strokeColor=#000000;fontColor=#5AA9E6;" vertex="1" parent="1">
          <mxGeometry x="560" y="80" width="40" height="40" as="geometry" />
        </mxCell>
        <mxCell id="tL17GhLCMj96Ze86oTwv-8" value="КА №14 ТП-87" style="whiteSpace=wrap;html=1;aspect=fixed;rounded=0;fillColor=#FFE45E;strokeColor=#000000;fontColor=#5AA9E6;" vertex="1" parent="1">
          <mxGeometry x="680" y="80" width="40" height="40" as="geometry" />
        </mxCell>
        <mxCell id="tL17GhLCMj96Ze86oTwv-9" value="КА №15 ТП-87" style="whiteSpace=wrap;html=1;aspect=fixed;rounded=0;fillColor=#FFE45E;strokeColor=#000000;fontColor=#5AA9E6;" vertex="1" parent="1">
          <mxGeometry x="800" y="80" width="40" height="40" as="geometry" />
        </mxCell>
        <mxCell id="tL17GhLCMj96Ze86oTwv-10" value="КА №16 ТП-87" style="whiteSpace=wrap;html=1;aspect=fixed;rounded=0;fillColor=#FFE45E;strokeColor=#000000;fontColor=#5AA9E6;" vertex="1" parent="1">
          <mxGeometry x="920" y="80" width="40" height="40" as="geometry" />
        </mxCell>
        <mxCell id="tL17GhLCMj96Ze86oTwv-11" value="Коллектор 140 ата" style="rounded=0;whiteSpace=wrap;html=1;strokeColor=#B20000;fillColor=#FFE45E;fontColor=#5AA9E6;" vertex="1" parent="1">
          <mxGeometry x="-40" y="170" width="340" height="10" as="geometry" />
        </mxCell>
        <mxCell id="tL17GhLCMj96Ze86oTwv-12" value="Коллектор 140 ата" style="rounded=0;whiteSpace=wrap;html=1;strokeColor=#B20000;fillColor=#FFE45E;fontColor=#5AA9E6;" vertex="1" parent="1">
          <mxGeometry x="320" y="170" width="840" height="10" as="geometry" />
        </mxCell>
        <mxCell id="tL17GhLCMj96Ze86oTwv-13" value="" style="triangle;whiteSpace=wrap;html=1;strokeColor=#B20000;rounded=0;fillColor=#FFE45E;fontColor=#5AA9E6;" vertex="1" parent="1">
          <mxGeometry x="300" y="170" width="10" height="10" as="geometry" />
        </mxCell>
        <mxCell id="tL17GhLCMj96Ze86oTwv-14" value="" style="triangle;whiteSpace=wrap;html=1;rotation=-180;strokeColor=#B20000;rounded=0;fillColor=#FFE45E;fontColor=#5AA9E6;" vertex="1" parent="1">
          <mxGeometry x="310" y="170" width="10" height="10" as="geometry" />
        </mxCell>
        <mxCell id="tL17GhLCMj96Ze86oTwv-17" value="" style="endArrow=classic;html=1;rounded=0;fillColor=#e51400;strokeColor=#B20000;fontColor=#5AA9E6;" edge="1" parent="1">
          <mxGeometry width="50" height="50" relative="1" as="geometry">
            <mxPoint x="-20.339999999999975" y="120" as="sourcePoint" />
            <mxPoint x="-20.339999999999975" y="170.0000000000001" as="targetPoint" />
          </mxGeometry>
        </mxCell>
        <mxCell id="tL17GhLCMj96Ze86oTwv-18" value="" style="endArrow=classic;html=1;rounded=0;strokeColor=#B20000;fontColor=#5AA9E6;fillColor=#e51400;" edge="1" parent="1">
          <mxGeometry width="50" height="50" relative="1" as="geometry">
            <mxPoint x="99.66000000000003" y="120" as="sourcePoint" />
            <mxPoint x="99.66000000000003" y="170.0000000000001" as="targetPoint" />
          </mxGeometry>
        </mxCell>
        <mxCell id="tL17GhLCMj96Ze86oTwv-19" value="" style="endArrow=classic;html=1;rounded=0;fillColor=#e51400;strokeColor=#B20000;fontColor=#5AA9E6;" edge="1" parent="1">
          <mxGeometry width="50" height="50" relative="1" as="geometry">
            <mxPoint x="219.65999999999997" y="120" as="sourcePoint" />
            <mxPoint x="219.65999999999997" y="170.0000000000001" as="targetPoint" />
          </mxGeometry>
        </mxCell>
        <mxCell id="tL17GhLCMj96Ze86oTwv-20" value="" style="endArrow=classic;html=1;rounded=0;strokeColor=#B20000;fontColor=#5AA9E6;fillColor=#e51400;" edge="1" parent="1">
          <mxGeometry width="50" height="50" relative="1" as="geometry">
            <mxPoint x="339.65999999999997" y="120" as="sourcePoint" />
            <mxPoint x="339.65999999999997" y="170.0000000000001" as="targetPoint" />
          </mxGeometry>
        </mxCell>
        <mxCell id="tL17GhLCMj96Ze86oTwv-21" value="" style="endArrow=classic;html=1;rounded=0;strokeColor=#B20000;fontColor=#5AA9E6;fillColor=#e51400;" edge="1" parent="1">
          <mxGeometry width="50" height="50" relative="1" as="geometry">
            <mxPoint x="459.65999999999997" y="120" as="sourcePoint" />
            <mxPoint x="459.65999999999997" y="170.0000000000001" as="targetPoint" />
          </mxGeometry>
        </mxCell>
        <mxCell id="tL17GhLCMj96Ze86oTwv-22" value="" style="endArrow=classic;html=1;rounded=0;fillColor=#e51400;strokeColor=#B20000;fontColor=#5AA9E6;" edge="1" parent="1">
          <mxGeometry width="50" height="50" relative="1" as="geometry">
            <mxPoint x="579.6600000000001" y="120" as="sourcePoint" />
            <mxPoint x="579.6600000000001" y="170.0000000000001" as="targetPoint" />
          </mxGeometry>
        </mxCell>
        <mxCell id="tL17GhLCMj96Ze86oTwv-23" value="" style="endArrow=classic;html=1;rounded=0;strokeColor=#B20000;fontColor=#5AA9E6;fillColor=#e51400;" edge="1" parent="1">
          <mxGeometry width="50" height="50" relative="1" as="geometry">
            <mxPoint x="699.66" y="120" as="sourcePoint" />
            <mxPoint x="699.66" y="170.0000000000001" as="targetPoint" />
          </mxGeometry>
        </mxCell>
        <mxCell id="tL17GhLCMj96Ze86oTwv-24" value="" style="endArrow=classic;html=1;rounded=0;strokeColor=#B20000;fontColor=#5AA9E6;fillColor=#e51400;" edge="1" parent="1">
          <mxGeometry width="50" height="50" relative="1" as="geometry">
            <mxPoint x="819.66" y="120" as="sourcePoint" />
            <mxPoint x="819.66" y="170.0000000000001" as="targetPoint" />
          </mxGeometry>
        </mxCell>
        <mxCell id="tL17GhLCMj96Ze86oTwv-25" value="" style="endArrow=classic;html=1;rounded=0;strokeColor=#B20000;fontColor=#5AA9E6;fillColor=#e51400;" edge="1" parent="1">
          <mxGeometry width="50" height="50" relative="1" as="geometry">
            <mxPoint x="939.66" y="120" as="sourcePoint" />
            <mxPoint x="939.66" y="170.0000000000001" as="targetPoint" />
          </mxGeometry>
        </mxCell>
        <mxCell id="tL17GhLCMj96Ze86oTwv-26" value="" style="endArrow=none;html=1;rounded=0;strokeColor=#FF6392;fillColor=#FFE45E;fontColor=#5AA9E6;" edge="1" parent="1">
          <mxGeometry width="50" height="50" relative="1" as="geometry">
            <mxPoint x="-80" y="50" as="sourcePoint" />
            <mxPoint x="1000" y="50" as="targetPoint" />
          </mxGeometry>
        </mxCell>
        <mxCell id="tL17GhLCMj96Ze86oTwv-27" value="Мазут" style="edgeLabel;html=1;align=center;verticalAlign=middle;resizable=0;points=[];rounded=0;fontColor=#5AA9E6;" vertex="1" connectable="0" parent="tL17GhLCMj96Ze86oTwv-26">
          <mxGeometry x="0.8969" relative="1" as="geometry">
            <mxPoint x="29" as="offset" />
          </mxGeometry>
        </mxCell>
        <mxCell id="tL17GhLCMj96Ze86oTwv-29" value="" style="endArrow=none;html=1;rounded=0;strokeColor=#314354;fillColor=#647687;fontColor=#5AA9E6;" edge="1" parent="1">
          <mxGeometry width="50" height="50" relative="1" as="geometry">
            <mxPoint x="-80" y="30" as="sourcePoint" />
            <mxPoint x="1000" y="30" as="targetPoint" />
          </mxGeometry>
        </mxCell>
        <mxCell id="tL17GhLCMj96Ze86oTwv-30" value="Уголь" style="edgeLabel;html=1;align=center;verticalAlign=middle;resizable=0;points=[];rounded=0;fontColor=#5AA9E6;" vertex="1" connectable="0" parent="tL17GhLCMj96Ze86oTwv-29">
          <mxGeometry x="0.8969" relative="1" as="geometry">
            <mxPoint x="29" as="offset" />
          </mxGeometry>
        </mxCell>
        <mxCell id="tL17GhLCMj96Ze86oTwv-31" value="" style="endArrow=none;html=1;rounded=0;strokeColor=#D79B00;fillColor=#ffe6cc;fontColor=#5AA9E6;" edge="1" parent="1">
          <mxGeometry width="50" height="50" relative="1" as="geometry">
            <mxPoint x="-80" y="10" as="sourcePoint" />
            <mxPoint x="1000" y="10" as="targetPoint" />
          </mxGeometry>
        </mxCell>
        <mxCell id="tL17GhLCMj96Ze86oTwv-32" value="Газ" style="edgeLabel;html=1;align=center;verticalAlign=middle;resizable=0;points=[];rounded=0;fontColor=#5AA9E6;" vertex="1" connectable="0" parent="tL17GhLCMj96Ze86oTwv-31">
          <mxGeometry x="0.8969" relative="1" as="geometry">
            <mxPoint x="29" as="offset" />
          </mxGeometry>
        </mxCell>
        <mxCell id="tL17GhLCMj96Ze86oTwv-34" value="" style="endArrow=classic;html=1;rounded=0;strokeColor=#FF6392;fontColor=#5AA9E6;fillColor=#FFE45E;" edge="1" parent="1">
          <mxGeometry width="50" height="50" relative="1" as="geometry">
            <mxPoint x="-30" y="50" as="sourcePoint" />
            <mxPoint x="-30" y="80" as="targetPoint" />
          </mxGeometry>
        </mxCell>
        <mxCell id="tL17GhLCMj96Ze86oTwv-35" value="" style="endArrow=classic;html=1;rounded=0;strokeColor=#FF6392;fontColor=#5AA9E6;fillColor=#FFE45E;" edge="1" parent="1">
          <mxGeometry width="50" height="50" relative="1" as="geometry">
            <mxPoint x="90" y="50" as="sourcePoint" />
            <mxPoint x="90" y="80" as="targetPoint" />
          </mxGeometry>
        </mxCell>
        <mxCell id="tL17GhLCMj96Ze86oTwv-36" value="" style="endArrow=classic;html=1;rounded=0;strokeColor=#FF6392;fontColor=#5AA9E6;fillColor=#FFE45E;" edge="1" parent="1">
          <mxGeometry width="50" height="50" relative="1" as="geometry">
            <mxPoint x="210" y="50" as="sourcePoint" />
            <mxPoint x="210" y="80" as="targetPoint" />
          </mxGeometry>
        </mxCell>
        <mxCell id="tL17GhLCMj96Ze86oTwv-37" value="" style="endArrow=classic;html=1;rounded=0;strokeColor=#FF6392;fontColor=#5AA9E6;fillColor=#FFE45E;" edge="1" parent="1">
          <mxGeometry width="50" height="50" relative="1" as="geometry">
            <mxPoint x="330" y="50" as="sourcePoint" />
            <mxPoint x="330" y="80" as="targetPoint" />
          </mxGeometry>
        </mxCell>
        <mxCell id="tL17GhLCMj96Ze86oTwv-38" value="" style="endArrow=classic;html=1;rounded=0;strokeColor=#FF6392;fontColor=#5AA9E6;fillColor=#FFE45E;" edge="1" parent="1">
          <mxGeometry width="50" height="50" relative="1" as="geometry">
            <mxPoint x="450" y="50" as="sourcePoint" />
            <mxPoint x="450" y="80" as="targetPoint" />
          </mxGeometry>
        </mxCell>
        <mxCell id="tL17GhLCMj96Ze86oTwv-39" value="" style="endArrow=classic;html=1;rounded=0;strokeColor=#FF6392;fontColor=#5AA9E6;fillColor=#FFE45E;" edge="1" parent="1">
          <mxGeometry width="50" height="50" relative="1" as="geometry">
            <mxPoint x="570" y="50" as="sourcePoint" />
            <mxPoint x="570" y="80" as="targetPoint" />
          </mxGeometry>
        </mxCell>
        <mxCell id="tL17GhLCMj96Ze86oTwv-40" value="" style="endArrow=classic;html=1;rounded=0;strokeColor=#FF6392;fontColor=#5AA9E6;fillColor=#FFE45E;" edge="1" parent="1">
          <mxGeometry width="50" height="50" relative="1" as="geometry">
            <mxPoint x="689.5799999999999" y="50" as="sourcePoint" />
            <mxPoint x="689.5799999999999" y="80" as="targetPoint" />
          </mxGeometry>
        </mxCell>
        <mxCell id="tL17GhLCMj96Ze86oTwv-41" value="" style="endArrow=classic;html=1;rounded=0;strokeColor=#FF6392;fontColor=#5AA9E6;fillColor=#FFE45E;" edge="1" parent="1">
          <mxGeometry width="50" height="50" relative="1" as="geometry">
            <mxPoint x="810" y="50" as="sourcePoint" />
            <mxPoint x="810" y="80" as="targetPoint" />
          </mxGeometry>
        </mxCell>
        <mxCell id="tL17GhLCMj96Ze86oTwv-42" value="" style="endArrow=classic;html=1;rounded=0;strokeColor=#FF6392;fontColor=#5AA9E6;fillColor=#FFE45E;" edge="1" parent="1">
          <mxGeometry width="50" height="50" relative="1" as="geometry">
            <mxPoint x="930" y="50" as="sourcePoint" />
            <mxPoint x="930" y="80" as="targetPoint" />
          </mxGeometry>
        </mxCell>
        <mxCell id="tL17GhLCMj96Ze86oTwv-43" value="" style="endArrow=classic;html=1;rounded=0;strokeColor=#314354;fontColor=#5AA9E6;fillColor=#FFE45E;shadow=0;jumpStyle=arc;" edge="1" parent="1">
          <mxGeometry width="50" height="50" relative="1" as="geometry">
            <mxPoint x="-20.420000000000016" y="30" as="sourcePoint" />
            <mxPoint x="-20.420000000000016" y="80" as="targetPoint" />
          </mxGeometry>
        </mxCell>
        <mxCell id="tL17GhLCMj96Ze86oTwv-44" value="" style="endArrow=classic;html=1;rounded=0;strokeColor=#314354;fontColor=#5AA9E6;fillColor=#FFE45E;jumpStyle=arc;" edge="1" parent="1">
          <mxGeometry width="50" height="50" relative="1" as="geometry">
            <mxPoint x="99.57999999999993" y="30" as="sourcePoint" />
            <mxPoint x="99.57999999999993" y="80" as="targetPoint" />
          </mxGeometry>
        </mxCell>
        <mxCell id="tL17GhLCMj96Ze86oTwv-45" value="" style="endArrow=classic;html=1;rounded=0;strokeColor=#314354;fontColor=#5AA9E6;fillColor=#FFE45E;jumpStyle=arc;" edge="1" parent="1">
          <mxGeometry width="50" height="50" relative="1" as="geometry">
            <mxPoint x="219.57999999999993" y="30" as="sourcePoint" />
            <mxPoint x="219.57999999999993" y="80" as="targetPoint" />
          </mxGeometry>
        </mxCell>
        <mxCell id="tL17GhLCMj96Ze86oTwv-46" value="" style="endArrow=classic;html=1;rounded=0;strokeColor=#314354;fontColor=#5AA9E6;fillColor=#FFE45E;jumpStyle=arc;" edge="1" parent="1">
          <mxGeometry width="50" height="50" relative="1" as="geometry">
            <mxPoint x="339.5799999999999" y="30" as="sourcePoint" />
            <mxPoint x="339.5799999999999" y="80" as="targetPoint" />
          </mxGeometry>
        </mxCell>
        <mxCell id="tL17GhLCMj96Ze86oTwv-47" value="" style="endArrow=classic;html=1;rounded=0;strokeColor=#314354;fontColor=#5AA9E6;fillColor=#FFE45E;jumpStyle=arc;" edge="1" parent="1">
          <mxGeometry width="50" height="50" relative="1" as="geometry">
            <mxPoint x="459.5799999999999" y="30" as="sourcePoint" />
            <mxPoint x="459.5799999999999" y="80" as="targetPoint" />
          </mxGeometry>
        </mxCell>
        <mxCell id="tL17GhLCMj96Ze86oTwv-48" value="" style="endArrow=classic;html=1;rounded=0;strokeColor=#314354;fontColor=#5AA9E6;fillColor=#FFE45E;jumpStyle=arc;" edge="1" parent="1">
          <mxGeometry width="50" height="50" relative="1" as="geometry">
            <mxPoint x="579.5799999999999" y="30" as="sourcePoint" />
            <mxPoint x="579.5799999999999" y="80" as="targetPoint" />
          </mxGeometry>
        </mxCell>
        <mxCell id="tL17GhLCMj96Ze86oTwv-49" value="" style="endArrow=classic;html=1;rounded=0;strokeColor=#314354;fontColor=#5AA9E6;fillColor=#FFE45E;jumpStyle=arc;" edge="1" parent="1">
          <mxGeometry width="50" height="50" relative="1" as="geometry">
            <mxPoint x="699.5799999999999" y="30" as="sourcePoint" />
            <mxPoint x="699.5799999999999" y="80" as="targetPoint" />
          </mxGeometry>
        </mxCell>
        <mxCell id="tL17GhLCMj96Ze86oTwv-50" value="" style="endArrow=classic;html=1;rounded=0;strokeColor=#314354;fontColor=#5AA9E6;fillColor=#FFE45E;jumpStyle=arc;" edge="1" parent="1">
          <mxGeometry width="50" height="50" relative="1" as="geometry">
            <mxPoint x="819.5799999999999" y="30" as="sourcePoint" />
            <mxPoint x="819.5799999999999" y="80" as="targetPoint" />
          </mxGeometry>
        </mxCell>
        <mxCell id="tL17GhLCMj96Ze86oTwv-51" value="" style="endArrow=classic;html=1;rounded=0;strokeColor=#314354;fontColor=#5AA9E6;fillColor=#FFE45E;jumpStyle=arc;" edge="1" parent="1">
          <mxGeometry width="50" height="50" relative="1" as="geometry">
            <mxPoint x="939.5799999999999" y="30" as="sourcePoint" />
            <mxPoint x="939.5799999999999" y="80" as="targetPoint" />
          </mxGeometry>
        </mxCell>
        <mxCell id="tL17GhLCMj96Ze86oTwv-52" value="" style="endArrow=classic;html=1;rounded=0;strokeColor=#D79B00;fontColor=#5AA9E6;fillColor=#FFE45E;jumpStyle=arc;" edge="1" parent="1">
          <mxGeometry width="50" height="50" relative="1" as="geometry">
            <mxPoint x="-10" y="10" as="sourcePoint" />
            <mxPoint x="-10.000000000000057" y="80" as="targetPoint" />
          </mxGeometry>
        </mxCell>
        <mxCell id="tL17GhLCMj96Ze86oTwv-53" value="" style="endArrow=classic;html=1;rounded=0;strokeColor=#D79B00;fontColor=#5AA9E6;fillColor=#FFE45E;jumpStyle=arc;" edge="1" parent="1">
          <mxGeometry width="50" height="50" relative="1" as="geometry">
            <mxPoint x="110" y="10" as="sourcePoint" />
            <mxPoint x="110" y="80" as="targetPoint" />
          </mxGeometry>
        </mxCell>
        <mxCell id="tL17GhLCMj96Ze86oTwv-54" value="" style="endArrow=classic;html=1;rounded=0;strokeColor=#D79B00;fontColor=#5AA9E6;fillColor=#FFE45E;jumpStyle=arc;" edge="1" parent="1">
          <mxGeometry width="50" height="50" relative="1" as="geometry">
            <mxPoint x="230" y="10" as="sourcePoint" />
            <mxPoint x="230" y="80" as="targetPoint" />
          </mxGeometry>
        </mxCell>
        <mxCell id="tL17GhLCMj96Ze86oTwv-55" value="" style="endArrow=classic;html=1;rounded=0;strokeColor=#D79B00;fontColor=#5AA9E6;fillColor=#FFE45E;jumpStyle=arc;" edge="1" parent="1">
          <mxGeometry width="50" height="50" relative="1" as="geometry">
            <mxPoint x="350" y="10" as="sourcePoint" />
            <mxPoint x="350" y="80" as="targetPoint" />
          </mxGeometry>
        </mxCell>
        <mxCell id="tL17GhLCMj96Ze86oTwv-56" value="" style="endArrow=classic;html=1;rounded=0;strokeColor=#D79B00;fontColor=#5AA9E6;fillColor=#FFE45E;jumpStyle=arc;" edge="1" parent="1">
          <mxGeometry width="50" height="50" relative="1" as="geometry">
            <mxPoint x="470" y="10" as="sourcePoint" />
            <mxPoint x="470" y="80" as="targetPoint" />
          </mxGeometry>
        </mxCell>
        <mxCell id="tL17GhLCMj96Ze86oTwv-57" value="" style="endArrow=classic;html=1;rounded=0;strokeColor=#D79B00;fontColor=#5AA9E6;fillColor=#FFE45E;jumpStyle=arc;" edge="1" parent="1">
          <mxGeometry width="50" height="50" relative="1" as="geometry">
            <mxPoint x="590" y="10" as="sourcePoint" />
            <mxPoint x="590" y="80" as="targetPoint" />
          </mxGeometry>
        </mxCell>
        <mxCell id="tL17GhLCMj96Ze86oTwv-58" value="" style="endArrow=classic;html=1;rounded=0;strokeColor=#D79B00;fontColor=#5AA9E6;fillColor=#FFE45E;jumpStyle=arc;" edge="1" parent="1">
          <mxGeometry width="50" height="50" relative="1" as="geometry">
            <mxPoint x="710" y="10" as="sourcePoint" />
            <mxPoint x="710" y="80" as="targetPoint" />
          </mxGeometry>
        </mxCell>
        <mxCell id="tL17GhLCMj96Ze86oTwv-59" value="" style="endArrow=classic;html=1;rounded=0;strokeColor=#D79B00;fontColor=#5AA9E6;fillColor=#FFE45E;jumpStyle=arc;" edge="1" parent="1">
          <mxGeometry width="50" height="50" relative="1" as="geometry">
            <mxPoint x="830" y="10" as="sourcePoint" />
            <mxPoint x="830" y="80" as="targetPoint" />
          </mxGeometry>
        </mxCell>
        <mxCell id="tL17GhLCMj96Ze86oTwv-68" value="" style="rounded=0;whiteSpace=wrap;html=1;strokeColor=#000000;fontColor=#5AA9E6;fillColor=#FFFFFF;rotation=-90;" vertex="1" parent="1">
          <mxGeometry x="-61.33" y="208.52" width="37.04" height="20" as="geometry" />
        </mxCell>
        <mxCell id="tL17GhLCMj96Ze86oTwv-69" value="" style="triangle;whiteSpace=wrap;html=1;strokeColor=#000000;fontColor=#5AA9E6;fillColor=#FFFFFF;rotation=-90;" vertex="1" parent="1">
          <mxGeometry x="-55.61999999999999" y="216.09" width="25.62" height="17.18" as="geometry" />
        </mxCell>
        <mxCell id="tL17GhLCMj96Ze86oTwv-70" value="РОУ №1,2&lt;br style=&quot;font-size: 10px;&quot;&gt;140/29" style="text;html=1;align=center;verticalAlign=middle;resizable=0;points=[];autosize=1;strokeColor=none;fillColor=none;fontColor=#000000;fontSize=10;" vertex="1" parent="1">
          <mxGeometry x="-125.62" y="198.52" width="70" height="40" as="geometry" />
        </mxCell>
        <mxCell id="tL17GhLCMj96Ze86oTwv-71" value="" style="endArrow=none;html=1;rounded=0;shadow=0;strokeColor=#B20000;fontSize=10;fontColor=#000000;fillColor=#FFE45E;jumpStyle=arc;" edge="1" parent="1">
          <mxGeometry width="50" height="50" relative="1" as="geometry">
            <mxPoint x="-39.7" y="200" as="sourcePoint" />
            <mxPoint x="-40.000000000000014" y="180" as="targetPoint" />
          </mxGeometry>
        </mxCell>
        <mxCell id="tL17GhLCMj96Ze86oTwv-73" value="" style="endArrow=classic;html=1;rounded=0;shadow=0;strokeColor=#FF8000;fontSize=10;fontColor=#000000;fillColor=#FFE45E;jumpStyle=arc;exitX=0;exitY=0.5;exitDx=0;exitDy=0;" edge="1" parent="1" source="tL17GhLCMj96Ze86oTwv-69">
          <mxGeometry width="50" height="50" relative="1" as="geometry">
            <mxPoint x="-42.66" y="240" as="sourcePoint" />
            <mxPoint x="-42.849999999999994" y="270" as="targetPoint" />
          </mxGeometry>
        </mxCell>
        <mxCell id="tL17GhLCMj96Ze86oTwv-74" value="Коллектор 29 ата" style="rounded=0;whiteSpace=wrap;html=1;strokeColor=#000000;fillColor=#FF8000;fontColor=#000000;" vertex="1" parent="1">
          <mxGeometry x="-244.29" y="270" width="220" height="10" as="geometry" />
        </mxCell>
        <mxCell id="tL17GhLCMj96Ze86oTwv-81" value="АЗОТ" style="whiteSpace=wrap;html=1;aspect=fixed;strokeColor=#000000;fontSize=10;fontColor=#000000;fillColor=#FF8000;" vertex="1" parent="1">
          <mxGeometry x="-340" y="208.52" width="50" height="50" as="geometry" />
        </mxCell>
        <mxCell id="tL17GhLCMj96Ze86oTwv-82" value="Химпром" style="whiteSpace=wrap;html=1;aspect=fixed;strokeColor=#000000;fontSize=10;fontColor=#000000;fillColor=#FF8000;" vertex="1" parent="1">
          <mxGeometry x="-340" y="280" width="50" height="50" as="geometry" />
        </mxCell>
        <mxCell id="tL17GhLCMj96Ze86oTwv-85" value="" style="endArrow=classic;html=1;rounded=0;shadow=0;strokeColor=#FF8000;fontSize=10;fontColor=#000000;fillColor=#FFE45E;jumpStyle=arc;exitX=0.019;exitY=0;exitDx=0;exitDy=0;exitPerimeter=0;" edge="1" parent="1" source="tL17GhLCMj96Ze86oTwv-74" target="tL17GhLCMj96Ze86oTwv-81">
          <mxGeometry width="50" height="50" relative="1" as="geometry">
            <mxPoint x="-50" y="220" as="sourcePoint" />
            <mxPoint y="170" as="targetPoint" />
          </mxGeometry>
        </mxCell>
        <mxCell id="tL17GhLCMj96Ze86oTwv-86" value="" style="endArrow=classic;html=1;rounded=0;shadow=0;strokeColor=#FF8000;fontSize=10;fontColor=#000000;fillColor=#FFE45E;jumpStyle=arc;entryX=1;entryY=0.5;entryDx=0;entryDy=0;exitX=0.021;exitY=0.971;exitDx=0;exitDy=0;exitPerimeter=0;" edge="1" parent="1" source="tL17GhLCMj96Ze86oTwv-74" target="tL17GhLCMj96Ze86oTwv-82">
          <mxGeometry width="50" height="50" relative="1" as="geometry">
            <mxPoint x="-50" y="220" as="sourcePoint" />
            <mxPoint y="170" as="targetPoint" />
          </mxGeometry>
        </mxCell>
        <mxCell id="tL17GhLCMj96Ze86oTwv-92" value="" style="rounded=0;whiteSpace=wrap;html=1;strokeColor=#000000;fontColor=#5AA9E6;fillColor=#FFFFFF;rotation=-90;" vertex="1" parent="1">
          <mxGeometry x="1195" y="212.04000000000002" width="37.04" height="20" as="geometry" />
        </mxCell>
        <mxCell id="tL17GhLCMj96Ze86oTwv-93" value="" style="triangle;whiteSpace=wrap;html=1;strokeColor=#000000;fontColor=#5AA9E6;fillColor=#FFFFFF;rotation=-90;" vertex="1" parent="1">
          <mxGeometry x="1200.71" y="219.61" width="25.62" height="17.18" as="geometry" />
        </mxCell>
        <mxCell id="tL17GhLCMj96Ze86oTwv-94" value="РОУ №1,2&lt;br style=&quot;font-size: 10px;&quot;&gt;140/13" style="text;html=1;align=center;verticalAlign=middle;resizable=0;points=[];autosize=1;strokeColor=none;fillColor=none;fontColor=#000000;fontSize=10;" vertex="1" parent="1">
          <mxGeometry x="1226.33" y="202.04000000000002" width="70" height="40" as="geometry" />
        </mxCell>
        <mxCell id="tL17GhLCMj96Ze86oTwv-95" value="" style="rounded=0;whiteSpace=wrap;html=1;strokeColor=#000000;fontColor=#5AA9E6;fillColor=#FFFFFF;rotation=-90;" vertex="1" parent="1">
          <mxGeometry x="1100" y="212.04000000000002" width="37.04" height="20" as="geometry" />
        </mxCell>
        <mxCell id="tL17GhLCMj96Ze86oTwv-96" value="" style="triangle;whiteSpace=wrap;html=1;strokeColor=#000000;fontColor=#5AA9E6;fillColor=#FFFFFF;rotation=-90;" vertex="1" parent="1">
          <mxGeometry x="1105.71" y="219.61" width="25.62" height="17.18" as="geometry" />
        </mxCell>
        <mxCell id="tL17GhLCMj96Ze86oTwv-97" value="РОУ №1,2&lt;br style=&quot;font-size: 10px;&quot;&gt;140/18" style="text;html=1;align=center;verticalAlign=middle;resizable=0;points=[];autosize=1;strokeColor=none;fillColor=none;fontColor=#000000;fontSize=10;" vertex="1" parent="1">
          <mxGeometry x="1131.33" y="203.52" width="70" height="40" as="geometry" />
        </mxCell>
        <mxCell id="tL17GhLCMj96Ze86oTwv-104" value="" style="endArrow=none;html=1;rounded=0;shadow=0;strokeColor=#B20000;fontSize=10;fontColor=#000000;fillColor=#FFE45E;jumpStyle=arc;endSize=6;jumpSize=6;" edge="1" parent="1">
          <mxGeometry width="50" height="50" relative="1" as="geometry">
            <mxPoint x="1111.33" y="193.52" as="sourcePoint" />
            <mxPoint x="1201.33" y="193.52" as="targetPoint" />
          </mxGeometry>
        </mxCell>
        <mxCell id="tL17GhLCMj96Ze86oTwv-105" value="" style="endArrow=classic;html=1;rounded=0;shadow=0;strokeColor=#B20000;fontSize=10;fontColor=#000000;fillColor=#FFE45E;jumpStyle=arc;strokeWidth=1;" edge="1" parent="1">
          <mxGeometry width="50" height="50" relative="1" as="geometry">
            <mxPoint x="1213.4499999999998" y="193.52" as="sourcePoint" />
            <mxPoint x="1213.4499999999998" y="203.52" as="targetPoint" />
          </mxGeometry>
        </mxCell>
        <mxCell id="tL17GhLCMj96Ze86oTwv-107" value="" style="endArrow=classic;html=1;rounded=0;shadow=0;strokeColor=#B20000;fontSize=10;fontColor=#000000;fillColor=#FFE45E;jumpStyle=arc;" edge="1" parent="1">
          <mxGeometry width="50" height="50" relative="1" as="geometry">
            <mxPoint x="1118.3199999999997" y="193.52" as="sourcePoint" />
            <mxPoint x="1118.3199999999997" y="203.52" as="targetPoint" />
          </mxGeometry>
        </mxCell>
        <mxCell id="tL17GhLCMj96Ze86oTwv-114" value="" style="shape=trapezoid;perimeter=trapezoidPerimeter;whiteSpace=wrap;html=1;fixedSize=1;strokeColor=#B20000;fontSize=10;fontColor=#000000;fillColor=#FFFFFF;rotation=-90;" vertex="1" parent="1">
          <mxGeometry x="960" y="280" width="80" height="77.5" as="geometry" />
        </mxCell>
        <mxCell id="tL17GhLCMj96Ze86oTwv-117" value="" style="shape=trapezoid;perimeter=trapezoidPerimeter;whiteSpace=wrap;html=1;fixedSize=1;strokeColor=#B20000;fontSize=10;fontColor=#000000;fillColor=#FFFFFF;rotation=-90;" vertex="1" parent="1">
          <mxGeometry y="281.25" width="80" height="77.5" as="geometry" />
        </mxCell>
        <mxCell id="tL17GhLCMj96Ze86oTwv-118" value="" style="shape=trapezoid;perimeter=trapezoidPerimeter;whiteSpace=wrap;html=1;fixedSize=1;strokeColor=#B20000;fontSize=10;fontColor=#000000;fillColor=#FFFFFF;rotation=-90;" vertex="1" parent="1">
          <mxGeometry x="160" y="280" width="80" height="77.5" as="geometry" />
        </mxCell>
        <mxCell id="tL17GhLCMj96Ze86oTwv-119" value="" style="shape=trapezoid;perimeter=trapezoidPerimeter;whiteSpace=wrap;html=1;fixedSize=1;strokeColor=#B20000;fontSize=10;fontColor=#000000;fillColor=#FFFFFF;rotation=-90;" vertex="1" parent="1">
          <mxGeometry x="320" y="280" width="80" height="77.5" as="geometry" />
        </mxCell>
        <mxCell id="tL17GhLCMj96Ze86oTwv-120" value="" style="shape=trapezoid;perimeter=trapezoidPerimeter;whiteSpace=wrap;html=1;fixedSize=1;strokeColor=#B20000;fontSize=10;fontColor=#000000;fillColor=#FFFFFF;rotation=-90;" vertex="1" parent="1">
          <mxGeometry x="480" y="280" width="80" height="77.5" as="geometry" />
        </mxCell>
        <mxCell id="tL17GhLCMj96Ze86oTwv-121" value="" style="shape=trapezoid;perimeter=trapezoidPerimeter;whiteSpace=wrap;html=1;fixedSize=1;strokeColor=#B20000;fontSize=10;fontColor=#000000;fillColor=#FFFFFF;rotation=-90;" vertex="1" parent="1">
          <mxGeometry x="640" y="281.25" width="80" height="77.5" as="geometry" />
        </mxCell>
        <mxCell id="tL17GhLCMj96Ze86oTwv-122" value="" style="shape=trapezoid;perimeter=trapezoidPerimeter;whiteSpace=wrap;html=1;fixedSize=1;strokeColor=#B20000;fontSize=10;fontColor=#000000;fillColor=#FFFFFF;rotation=-90;" vertex="1" parent="1">
          <mxGeometry x="800" y="280" width="80" height="77.5" as="geometry" />
        </mxCell>
        <mxCell id="tL17GhLCMj96Ze86oTwv-123" value="" style="endArrow=none;html=1;rounded=0;shadow=0;strokeColor=#B20000;strokeWidth=1;fontSize=10;fontColor=#000000;endSize=6;fillColor=#FFE45E;jumpStyle=arc;jumpSize=6;" edge="1" parent="1">
          <mxGeometry width="50" height="50" relative="1" as="geometry">
            <mxPoint x="1160" y="190" as="sourcePoint" />
            <mxPoint x="1160" y="169.61" as="targetPoint" />
          </mxGeometry>
        </mxCell>
      </root>
    </mxGraphModel>
  </diagram>
</mxfile>
